<svg width="512" height="512" viewBox="0 0 512 512" fill="none" xmlns="http://www.w3.org/2000/svg">
<g clip-path="url(#clip0_20_14)">
<mask id="mask0_20_14" style="mask-type:alpha" maskUnits="userSpaceOnUse" x="0" y="91" width="512" height="330">
<path d="M271 256C271 280.813 291.187 301 316 301C335.555 301 352.228 288.458 358.42 271H376C384.284 271 391 264.284 391 256C391 247.716 384.284 241 376 241H358.42C352.228 223.542 335.555 211 316 211C291.187 211 271 231.187 271 256ZM331 256C331 264.271 324.271 271 316 271C307.729 271 301 264.271 301 256C301 247.729 307.729 241 316 241C324.271 241 331 247.729 331 256ZM500.819 169.147C492.367 157.445 480.356 151 467 151C445.894 151 433.01 166.553 426.529 180.738C372.932 178.05 351.439 154.636 330.624 131.943C312.162 111.814 293.071 91 256 91C218.929 91 199.838 111.814 181.376 131.942C160.561 154.636 139.068 178.05 85.471 180.737C78.99 166.553 66.107 151 45 151C31.644 151 19.633 157.445 11.181 169.147C3.971 179.128 0 192.216 0 206C0 224.51 7.303 243.362 21.118 260.517C35.132 277.919 55.607 293.516 82.017 306.932C91.053 327.028 102.796 345.113 117.146 360.822C152.596 399.628 201.908 421 256 421C310.092 421 359.404 399.628 394.854 360.822C409.205 345.113 420.947 327.028 429.983 306.932C456.393 293.516 476.868 277.919 490.882 260.517C504.697 243.362 512 224.51 512 206C512 192.216 508.029 179.128 500.819 169.147ZM30 206C30 192.215 36.729 181 45 181C53.657 181 58.646 194.046 60.021 198.227C60.172 221.078 62.639 242.756 67.34 263.015C43.267 245.348 30 225.451 30 206ZM256 391C160.886 391 95.68 319.083 90.362 210.506C153.821 206.353 181.187 176.53 203.485 152.221C216.225 138.331 226.261 127.403 241.001 123.051V196C241.001 204.284 247.717 211 256.001 211C264.285 211 271.001 204.284 271.001 196V123.05C285.74 127.403 295.777 138.331 308.517 152.22C330.815 176.53 358.181 206.352 421.64 210.505C416.32 319.083 351.114 391 256 391ZM444.66 263.015C449.36 242.759 451.827 221.085 451.979 198.239C453.382 193.974 458.366 181 467 181C475.271 181 482 192.215 482 206C482 225.451 468.733 245.348 444.66 263.015Z" fill="url(#paint0_linear_20_14)"/>
</mask>
<g mask="url(#mask0_20_14)">
<rect y="-11" width="512" height="512" fill="black"/>
</g>
</g>
<defs>
<linearGradient id="paint0_linear_20_14" x1="256" y1="421" x2="256" y2="91" gradientUnits="userSpaceOnUse">
<stop stop-color="#A93AFF"/>
<stop offset="1" stop-color="#FF81FF"/>
</linearGradient>
<clipPath id="clip0_20_14">
<rect width="512" height="512" fill="white"/>
</clipPath>
</defs>
</svg>
